<svg xmlns="http://www.w3.org/2000/svg" width="500" height="500" style="width:100%;height:100%;content-visibility:visible"><defs><clipPath id="a"><path d="M0 0h500v500H0z"/></clipPath></defs><g display="block" clip-path="url(#a)"><path stroke-linecap="round" stroke-linejoin="round" stroke="#08A88A" stroke-width="12.04" d="M155.188 190.897s-51.86-54.246-80.138-24.026c-33.721 36.037 6.992 137.797 90.485 137.797m179.277-113.771s51.861-54.246 80.139-24.026c33.721 36.037-6.992 137.797-90.485 137.797" fill="none"/><path stroke-linecap="round" stroke-linejoin="round" stroke="#121331" stroke-width="12.04" d="M249.898 356.289h-.001c-52.307 0-94.709-42.402-94.709-94.709v-70.684l84.081-21.33a43.236 43.236 0 0121.257 0l84.081 21.33v70.684c0 52.307-42.402 94.709-94.709 94.709zm-94.71-111.755l84.081-21.33a43.236 43.236 0 0121.257 0l84.081 21.33m-186.065 42.085c83.843 36.953 166.036 6.836 182.722-.054" fill="none"/></g></svg>