<?xml version="1.0" encoding="UTF-8"?>
<svg viewBox="0 0 998 946" xmlns="http://www.w3.org/2000/svg">
 <path d="m67 810l11 9 10 9 9 8 9 7 9 8 8 6 9 6 8 6 9 6 9 5 10 5 10 5 12 4 12 4 14 4 15 5 14 3 15 3 14 3 15 2 14 2 14 2 14 2 14 1h53l13-1 12-2 12-2 11-2 20-3 19-2 19-3 18-2 18-3 18-3 17-3 17-3 17-3 16-3 16-3 16-4 15-3 15-3 15-3 14-4 27-7 25-7 23-7 21-8 20-7 18-8 16-8 15-8 14-8 13-8 11-8 11-8 9-9 10-8 8-9 8-8 9-10 7-9 5-10 5-9 3-8 1-9 1-9v-9l-7-7-4-7-4-7-4-6-4-7-4-7-4-5-7-6-18-13-17-12-17-11-17-10-17-10-17-8-16-7-16-7-15-5-15-5-16-5-15-4-14-3-15-2-14-2-14-1-13-1-12-1h-25l-11 1-13 1h-11l-12 2-11 1-11 1-12 2-11 2-10 1-11 2-11 2-11 2-10 2-10 1-11 1-10 2-10 1-10 1h-10l-9 1h-20l-10-1-9-1-10-1-9-2-10-2-9-3 23-19 16-15 9-13 5-11-2-7-6-4-11-3h-15l-18 1-21 4-25 5-26 7-28 8-30 10-31 10-30 12-8 3-7 3-7 3-8 3-7 4-7 3-7 3-7 3-8 3-7 3-7 4-7 3-6 4-7 3-7 3-6 4-15 8-11 7-6 6-4 5-3 5-4 5-4 8-8 8v10l4 15 5 16 8 17 7 17 7 16 6 13 2 8 4 13v21l-1 10v8l2 8 6 10 12 11z" fill="#bfddbf"/>
 <path d="m225 288l1 10 36 358 4 59h1l5 2 8 1 11 2 12 3 14 2 15 3 16 3 17 3 16 4 16 3 14 3 14 2 12 2 10 1 8 1h14l9-1 11-2 12-2 13-2 12-2 13-3 13-2 11-3 11-2 9-2 9-2 6-2h3l2-1 9-46 18-104 35-213 3-65-7-5h-1l-5-1-5-1-8-2-10-1-12-2-13-3-14-2-16-2-16-2-17-2-18-2-17-1-19-2-18-1h-54l-18 1-17 1-17 2-16 2-15 2-14 3-13 2-12 3-10 2-9 2-7 1-5 2h-3l-1 1-36-3z"/>
 <path d="m271 302h5l5-1 7-1 8-1 10-2 11-1 11-1 13-1 12-1 13-2 12-1 12-1h12l10-1h36l8-1h7l7-1h8l7-1h7l7-1h27l8 1 7 1 8 1 8 1 9 1 8 2 9 1 9 2 8 1 9 2 7 1 8 1 6 2 5 1 5 1 3 1h3l1 3 2 7v8l-3 6-6 6-6 3-5 3-5 2h-21l-6 1-7 1-9 1-7 2-8 2-6 2-4 1h-1l-3 1-8 2-10 2-13 4-14 3-13 2-12 1h-8l-8-1h-10l-11-1h-21l-8 1h-8l-3-1-6-2-9-3-11-4-12-4-11-4-10-3-8-3-11-4-13-5-12-5-12-5-9-5-7-6-4-5 1-5z" fill="#003d0f"/>
 <path d="m241 307l2 1 5 2 6 4 10 5 11 6 12 6 13 7 14 8 15 7 14 8 13 7 13 6 12 6 10 4 8 3 5 2 6 1h19l11-1h10l10-1h8l192-51-63 373h-1l-4 1-6 1-9 1-10 2-11 2-13 2-12 2-14 2-13 2-13 2-12 2-11 1-10 1-8 1h-21l-10-1-12-1-13-1-13-2-15-1-14-2-14-2-13-3-13-2-10-3-10-3-7-3-5-3-1-4-38-394z" fill="#007c1f"/>
 <path d="m282 366l22 303-1 25 8 8 6-17 51-270-86-49z" fill="#01aa2b"/>
 <path d="m544 407l-27 313 59-8 5-57 33-273-70 25z" fill="#005916"/>
 <path d="m234 317v1l-1 5-2 7-2 10-1 11-1 13-1 14 1 15 2 15 3 16 5 16 8 15 10 14 13 13 16 12 19 10 13 4 14 3h15l16-2 16-3 15-4 17-6 16-6 16-7 15-8 14-8 14-8 14-9 12-7 10-8 10-7 8-6 10-8 10-8 11-8 11-9 11-9 11-9 11-8 10-8 9-7 9-7 7-6 6-4 4-4 3-2 1-1v22l-2 2-5 5-9 8-11 11-14 13-16 14-18 16-19 15-21 16-22 15-21 15-22 12-22 11-21 8-20 6-19 2h-11l-11 1-11 1-11 2-11 1-10 2-11 1-10 1h-20l-9-1-10-3-9-3-9-5-8-7-8-8-12-22-8-29-3-30-1-31 1-29 2-24 2-16 1-6 11 7z"/>
 <path d="m136 630l133 38 191-665h13l7 1 9 2 8 3 8 6 7 7-1 10-6 23-9 34-12 44-16 50-17 56-19 60-20 62-20 61-19 59-18 55-16 50-14 42-11 32-6 21-3 7 123 33-20 72-31-13-21-7-19-8-19-1-25-14-33-7-16-6h-1l-2-3-2-2-3-3-4-2-3-2h-7l-3 1-3 1-2-1-3-1h-2l-1-1-2-1-16-6-18-9-1 1h-8l-3-1-4-1-4-1-4-2-5-1-5-2-5-1-5-1-4-1-2-1h-1l-19-12 34-55z"/>
 <path d="m303 611l14 2-19 67-2 1h-3l-3-1h-3l-3-1-3-1-1-1h-1l5-14 19-52z" fill="#0000bf"/>
 <g fill="#00f">
  <path d="m416 733l-275-90-9 6 281 93 3-9z"/>
  <path d="m133 654l278 93-4 14-279-95 5-12z"/>
 </g>
 <path d="m467 22h3l4 1h4l5 1 4 1 5 1 3 2-1 8-5 19-7 29-10 37-13 44-15 48-16 52-16 53-16 53-16 52-15 47-14 44-11 36-9 28-5 18-2 6-18-6 1-6 5-18 8-29 10-36 12-43 13-47 14-52 15-53 15-53 14-52 14-48 13-44 10-37 9-29 5-19 3-8z" fill="#ffbfbf"/>
 <path d="m488 23l-170 575 178-563-8-12z" fill="#d19191"/>
 <path d="m467 22l-161 574 170-571-9-3z" fill="#fff"/>
 <path d="m247 821l338-229 113-30 22 14 115-13 27 32v6l-1 14-4 15-7 8h-9l-4-3-1-3-1-1-54 12 3 22-26 102-399 179-22-3-87-92-3-30z"/>
 <path d="m595 597l99-27 22 13 115-15 24 26-90 25 5 27-76 39-99-88z" fill="#ffffea"/>
 <g fill="#adad6d">
  <path d="m774 624l83-23-3 29-10 4-9-10-56 14-5-14z"/>
  <path d="m774 653l-74 43-21 98 69-29 26-112z"/>
 </g>
 <g fill="#7f7f7f">
  <path d="m680 696l1 4 1 11v15l-2 17-2 9-3 11-3 10-3 10-3 9-3 7-2 5v2l-306 131-14-8 339-233z"/>
  <path d="m679 687l-341 234-86-94 333-222h1l2 2 4 3 5 4 6 5 7 6 7 6 8 7 8 7 8 7 8 6 7 7 7 7 6 5 5 6 5 4z"/>
 </g>
 <path d="m729 588l12 17 56-8-16-20-20-3-32 14z"/>
 <g fill="#3f3f3f">
  <path d="m741 605l27-16 22 4-49 12z"/>
  <path d="m735 589l26-15 2 13-21 11-7-9z"/>
  <path d="m768 574l13 3 9 16-21-8-1-11z"/>
  <path d="m585 605l94 82-21 13-92-80 19-15z"/>
  <path d="m680 696l2 4 2 10 2 12-2 11-2 8-4 9-4 12-4 13-3 11-3 11-2 6-1 3-9 3 14-65-2-36 16-12z"/>
 </g>
 <path d="m251 838l3 13 93 92-12-14-84-91z" fill="#140f68"/>
 <path d="m612 632l-19 10 21 18 17-11-19-17z"/>
 <path d="m612 636l-11 9 12 10 13-6-14-13z" fill="#ffffea"/>
</svg>
